<?xml version="1.0" standalone="no"?>
<!DOCTYPE svg PUBLIC "-//W3C//DTD SVG 20010904//EN"
 "http://www.w3.org/TR/2001/REC-SVG-20010904/DTD/svg10.dtd">
<svg version="1.0" xmlns="http://www.w3.org/2000/svg"
 width="316.000000pt" height="316.000000pt" viewBox="0 0 316.000000 316.000000"
 preserveAspectRatio="xMidYMid meet">
<metadata>
Created by potrace 1.14, written by Peter Selinger 2001-2017
</metadata>
<g transform="translate(0.000000,316.000000) scale(0.100000,-0.100000)"
fill="#000000" stroke="none">
<path d="M1439 3156 c-2 -2 -29 -6 -59 -9 -112 -12 -298 -61 -397 -104 -21 -9
-40 -17 -43 -18 -41 -8 -282 -155 -357 -218 -45 -37 -197 -190 -231 -232 -61
-75 -140 -200 -185 -290 -82 -165 -128 -317 -156 -517 -9 -65 -7 -364 3 -408
4 -14 8 -38 10 -55 22 -155 113 -396 203 -538 24 -37 43 -72 43 -76 0 -5 3
-11 8 -13 4 -2 25 -28 48 -58 161 -216 419 -411 672 -509 81 -31 244 -79 290
-85 15 -2 50 -7 77 -12 66 -10 333 -11 414 -1 224 28 455 111 650 234 264 168
504 455 610 728 13 33 27 69 31 80 23 54 60 204 76 300 12 80 12 360 -1 440
-23 145 -25 152 -57 255 -55 178 -166 384 -280 525 -98 119 -261 264 -379 336
-30 19 -64 40 -75 46 -21 14 -81 43 -159 78 -100 45 -272 93 -400 111 -40 6
-351 15 -356 10z"/>
</g>
</svg>
